<svg xmlns="http://www.w3.org/2000/svg" viewBox="0 0 16 16" style="width:16px;height:16px">
  <defs>
    <style>
g{display:none;}
g:target,g:target g{display:inline;}
.canvas{fill: none; opacity: 0;}
.light-blue{fill: #005dba; opacity: 1;}
.light-red{fill: #c50b17; opacity: 1;}
.light-green{fill: #1f801f; opacity: 1;}
.light-yellow{fill: #996f00; opacity: 1;}
.white{fill: #ffffff; opacity: 1;}
    </style>
  </defs>

  <g id="IconStatusAlert">
    <title>StatusAlert</title>
    <g id="StatusAlert-canvas" class="canvas">
      <path class="canvas" d="M16,16H0V0H16Z" />
    </g>
    <g id="StatusAlert-level-1">
      <path class="light-blue" d="M8.569,13.5H6.431L5.9,13.28,1.72,9.1,1.5,8.569V6.431L1.72,5.9,5.9,1.72l.531-.22H8.569l.531.22L13.28,5.9l.22.531V8.569l-.22.531L9.1,13.28Z" />
      <path class="white" d="M8,9H7V4H8Zm-.5.985a.75.75,0,1,0,.75.75A.75.75,0,0,0,7.5,9.985Z" />
    </g>
  </g>

  <g id="IconStatusError">
    <title>StatusError</title>
    <g id="StatusError-canvas" class="canvas">
      <path class="canvas" d="M16,16H0V0H16Z" />
    </g>
    <g id="StatusError-level-1">
      <path class="light-red" d="M14,7.5A6.5,6.5,0,1,1,7.5,1,6.508,6.508,0,0,1,14,7.5Z" />
      <path class="white" d="M8.384,7.5l2.808,2.808-.884.884L7.5,8.384,4.692,11.192l-.884-.884L6.616,7.5,3.808,4.692l.884-.884L7.5,6.616l2.808-2.808.884.884Z" />
    </g>
  </g>

  <g id="IconStatusExcluded">
    <title>IconLightStatusExcluded</title>
    <g id="StatusExcluded-canvas" class="canvas">
      <path class="canvas" d="M16,16H0V0H16Z" />
    </g>
    <g id="StatusExcluded-level-1">
      <path class="light-red" d="M14,7.5A6.5,6.5,0,1,1,7.5,1,6.508,6.508,0,0,1,14,7.5Z" />
      <path class="white" d="M11,7V8H4V7Z" />
    </g>
  </g>

  <g id="IconStatusHelp">
    <title>StatusHelp</title>
    <g id="StatusHelp-canvas" class="canvas">
      <path class="canvas" d="M16,16H0V0H16Z" />
    </g>
    <g id="StatusHelp-level-1">
      <path class="light-blue" d="M14,7.5A6.5,6.5,0,1,1,7.5,1,6.508,6.508,0,0,1,14,7.5Z" />
      <path class="white" d="M7.5,3.781A2.205,2.205,0,0,1,9.688,5.969c0,1.054-.7,1.5-1.3,2.115a1.518,1.518,0,0,0-.454,1.385H7.062a2.814,2.814,0,0,1,.13-1.153,2.794,2.794,0,0,1,.746-1,3.581,3.581,0,0,0,.745-.83,1.275,1.275,0,0,0-.67-1.729,1.313,1.313,0,0,0-1.825,1.21H5.312A2.195,2.195,0,0,1,7.5,3.781ZM8.25,11.5a.75.75,0,1,1-.75-.75A.75.75,0,0,1,8.25,11.5Z" />
    </g>
  </g>

  <g id="IconStatusInformation">
    <title>StatusInformation</title>
    <g id="StatusInformation-canvas" class="canvas">
      <path class="canvas" d="M16,16H0V0H16Z" />
    </g>
    <g id="StatusInformation-level-1">
      <path class="light-blue" d="M14,7.5A6.5,6.5,0,1,1,7.5,1,6.508,6.508,0,0,1,14,7.5Z" />
      <path class="white" d="M8,11V6H7v5Zm.25-6.75A.75.75,0,1,1,7.5,3.5.75.75,0,0,1,8.25,4.25Z" />
    </g>
  </g>

  <g id="IconStatusInvalid">
    <title>IconLightStatusInvalid</title>
    <g id="StatusInvalid-canvas" class="canvas">
      <path class="canvas" d="M16,16H0V0H16Z" />
    </g>
    <g id="StatusInvalid-level-1">
      <path class="light-red" d="M14,7.5A6.5,6.5,0,1,1,7.5,1,6.508,6.508,0,0,1,14,7.5Z" />
      <path class="white" d="M7,4V9H8V4Zm1.25,7a.75.75,0,1,1-.75-.75A.75.75,0,0,1,8.25,11Z" />
    </g>
  </g>

  <g id="IconStatusNo">
    <title>IconLightStatusNo</title>
    <g id="StatusNo-canvas" class="canvas">
      <path class="canvas" d="M16,16H0V0H16Z" />
    </g>
    <g id="StatusNo-level-1">
      <path class="light-red" d="M8,1a7,7,0,1,0,7,7A7.009,7.009,0,0,0,8,1ZM3,8a4.969,4.969,0,0,1,.833-2.753l6.92,6.92A4.992,4.992,0,0,1,3,8Zm9.167,2.753-6.92-6.92a4.992,4.992,0,0,1,6.92,6.92Z" />
    </g>
  </g>

  <g id="IconStatusOK">
    <title>IconLightStatusOK</title>
    <g id="StatusOK-canvas" class="canvas">
      <path class="canvas" d="M16,16H0V0H16Z" />
    </g>
    <g id="StatusOK-level-1">
      <path class="light-green" d="M14,7.5A6.5,6.5,0,1,1,7.5,1,6.508,6.508,0,0,1,14,7.5Z" />
      <path class="white" d="M11.354,5.854l-4.5,4.5H6.146l-2.5-2.5.708-.708L6.5,9.293l4.146-4.147Z" />
    </g>
  </g>

  <g id="IconStatusOffline">
    <title>StatusOffline</title>
    <g id="StatusOffline-canvas" class="canvas">
      <path class="canvas" d="M16,16H0V0H16Z" />
    </g>
    <g id="StatusOffline-level-1">
      <path class="light-red" d="M8.207,7.5l3.4,3.4L10.9,11.6l-3.4-3.4L4.1,11.6,3.4,10.9l3.4-3.4L3.4,4.1,4.1,3.4l3.4,3.4,3.4-3.4L11.6,4.1Z" />
    </g>
  </g>

  <g id="IconStatusPaused">
    <title>StatusPaused</title>
    <g id="StatusPaused-canvas" class="canvas">
      <path class="canvas" d="M16,16H0V0H16Z" />
    </g>
    <g id="StatusPaused-level-1">
      <path class="light-blue" d="M14,7.5A6.5,6.5,0,1,1,7.5,1,6.508,6.508,0,0,1,14,7.5Z" />
      <path class="white" d="M6,10H5V5H6Zm4,0H9V5h1Z" />
    </g>
  </g>

  <g id="IconStatusRequired">
    <title>StatusRequired</title>
    <g id="StatusRequired-canvas" class="canvas">
      <path class="canvas" d="M16,16H0V0H16Z" />
    </g>
    <g id="StatusRequired-level-1">
      <path class="light-red" d="M14,7.5A6.5,6.5,0,1,1,7.5,1,6.508,6.508,0,0,1,14,7.5Z" />
      <path class="white" d="M10.935,6.444,8.594,7.5,10.93,8.557l-.8,1.391-2.084-1.5L8.3,11H6.7l.249-2.553-2.084,1.5-.8-1.391L6.406,7.5,4.068,6.443l.8-1.391,2.084,1.5L6.7,4H8.3L8.051,6.553l2.084-1.5Z" />
    </g>
  </g>

  <g id="IconStatusRunning">
    <title>IconLightStatusRunning</title>
    <g id="StatusRunning-canvas" class="canvas">
      <path class="canvas" d="M16,16H0V0H16Z" />
    </g>
    <g id="StatusRunning-level-1">
      <path class="light-green" d="M14,7.5A6.5,6.5,0,1,1,7.5,1,6.508,6.508,0,0,1,14,7.5Z" />
      <path class="white" d="M10.5,7.5,6,10.5v-6Z" />
    </g>
  </g>

  <g id="IconStatusSecurityCritical">
    <title>IconLightStatusSecurityCritical</title>
    <g id="StatusSecurityCritical-canvas" class="canvas">
      <path class="canvas" d="M16,16H0V0H16Z" />
    </g>
    <g id="StatusSecurityCritical-level-1">
      <path class="light-red" d="M7.754,14.713H7.246q-.756-.445-1.505-.953C3.083,11.958.987,9.512,1,6.3V3.1l.5-.5a6.869,6.869,0,0,0,2.684-.42,16.06,16.06,0,0,1,2-.992,4.583,4.583,0,0,1,2.637,0A5.108,5.108,0,0,1,10,1.752a6.082,6.082,0,0,0,3.5.848l.5.5V6.3a7.231,7.231,0,0,1-.956,3.608A13.9,13.9,0,0,1,7.754,14.713Z" />
      <path class="white" d="M8.207,7.5l2.4,2.4L9.9,10.6l-2.4-2.4L5.1,10.6,4.4,9.9l2.4-2.4L4.4,5.1,5.1,4.4l2.4,2.4L9.9,4.4,10.6,5.1Z" />
    </g>
  </g>

  <g id="IconStatusSecurityOK">
    <title>IconLightStatusSecurityOK</title>
    <g id="StatusSecurityOK-canvas" class="canvas">
      <path class="canvas" d="M16,16H0V0H16Z" />
    </g>
    <g id="StatusSecurityOK-level-1">
      <path class="light-green" d="M7.754,14.713H7.246q-.756-.445-1.505-.953C3.083,11.958.987,9.512,1,6.3V3.1l.5-.5a6.869,6.869,0,0,0,2.684-.42,16.06,16.06,0,0,1,2-.992,4.583,4.583,0,0,1,2.637,0A5.108,5.108,0,0,1,10,1.752a6.082,6.082,0,0,0,3.5.848l.5.5V6.3a7.231,7.231,0,0,1-.956,3.608A13.9,13.9,0,0,1,7.754,14.713Z" />
      <path class="white" d="M11.854,6.1l-4.5,4.5H6.646l-2.5-2.5L4.854,7.4,7,9.543,11.146,5.4Z" />
    </g>
  </g>

  <g id="IconStatusSecurityWarning">
    <title>IconLightStatusSecurityWarning</title>
    <g id="StatusSecurityWarning-canvas" class="canvas">
      <path class="canvas" d="M16,16H0V0H16Z" />
    </g>
    <g id="StatusSecurityWarning-level-1">
      <path class="light-yellow" d="M7.754,14.713H7.246q-.756-.445-1.505-.953C3.083,11.958.987,9.512,1,6.3V3.1l.5-.5a6.869,6.869,0,0,0,2.684-.42,16.06,16.06,0,0,1,2-.992,4.583,4.583,0,0,1,2.637,0A5.108,5.108,0,0,1,10,1.752a6.082,6.082,0,0,0,3.5.848l.5.5V6.3a7.231,7.231,0,0,1-.956,3.608A13.9,13.9,0,0,1,7.754,14.713Z" />
      <path class="white" d="M7.5,11.25a.75.75,0,1,1,.75-.75A.75.75,0,0,1,7.5,11.25ZM7,4V8.5H8V4Z" />
    </g>
  </g>

  <g id="IconStatusStopped">
    <title>IconLightStatusStopped</title>
    <g id="StatusStopped-canvas" class="canvas">
      <path class="canvas" d="M16,16H0V0H16Z" />
    </g>
    <g id="StatusStopped-level-1">
      <path class="light-red" d="M14,7.5A6.5,6.5,0,1,1,7.5,1,6.508,6.508,0,0,1,14,7.5Z" />
      <path class="white" d="M10,5v5H5V5Z" />
    </g>
  </g>

  <g id="IconStatusWarning">
    <title>IconLightStatusWarning</title>
    <g id="StatusWarning-canvas" class="canvas">
      <path class="canvas" d="M16,16H0V0H16Z" />
    </g>
    <g id="StatusWarning-level-1">
      <path class="light-yellow" d="M14.444,14.27,14,15H1l-.444-.73,6.5-12.5h.888Z" />
      <path class="white" d="M7.5,13.25a.75.75,0,1,1,.75-.75A.75.75,0,0,1,7.5,13.25ZM7,6v4.5H8V6Z" />
    </g>
  </g>

</svg>
