<svg xmlns="http://www.w3.org/2000/svg" viewBox="0 0 18 18" style="width:18px;height:18px">
  <defs>
    <style>
g{display:none;}
g:target,g:target g{display:inline;}	
.canvas{fill: none; opacity: 0;}
.light-blue{fill: #005dba; opacity: 1;}
.light-blue-10{fill: #005dba; opacity: 0.1;}
.light-red{fill: #c50b17; opacity: 1;}
.light-red-10{fill: #c50b17; opacity: 0.1;}
.light-green{fill: #1f801f; opacity: 1;}
.light-yellow{fill: #996f00; opacity: 1;}
.white{fill: #ffffff; opacity: 1;}
    </style>
  </defs>

  <g id="IconStatusAlert">
    <title>StatusAlert.18.18</title>
    <title>IconLightStatusAlert.18.18</title>
    <g id="StatusAlert-canvas">
      <path class="canvas" d="M18,18H0V0H18Z" />
    </g>
    <g id="StatusAlert-level-1">
      <path class="light-blue" d="M10.926,17H8.074l-.707-.293L1.793,11.133,1.5,10.426V7.574l.293-.707L7.367,1.293,8.074,1h2.852l.707.293,5.574,5.574.293.707v2.852l-.293.707-5.574,5.574Z" />
      <path class="white" d="M10,10H9V4h1Zm-.5,1.75a.75.75,0,1,0,.75.75A.75.75,0,0,0,9.5,11.75Z" />
    </g>
  </g>

  <g id="IconStatusError">
    <title>StatusError.18.18</title>
    <title>StatusError.18.18</title>
    <g id="StatusError-canvas">
      <path class="canvas" d="M18,18H0V0H18Z" />
    </g>
    <g id="StatusError-level-1">
      <path class="light-red" d="M9,1a8,8,0,1,0,8,8A8.008,8.008,0,0,0,9,1Z" />
      <path class="white" d="M9.884,9l3.558,3.558-.884.884L9,9.884,5.442,13.442l-.884-.884L8.116,9,4.558,5.442l.884-.884L9,8.116l3.558-3.558.884.884Z" />
    </g>
  </g>

  <g id="IconStatusExcluded">
    <title>StatusExcluded.18.18</title>
    <title>IconLightStatusExcluded.18.18</title>
    <g id="StatusExcluded-canvas">
      <path class="canvas" d="M18,18H0V0H18Z" />
    </g>
    <g id="StatusExcluded-level-1">
      <path class="light-red" d="M9,1a8,8,0,1,0,8,8A8.009,8.009,0,0,0,9,1Z" />
      <path class="white" d="M14,10H4V8H14Z" />
    </g>
  </g>

  <g id="IconStatusHelp">
    <title>StatusHelp.18.18</title>
    <title>StatusHelp.18.18</title>
    <g id="StatusHelp-canvas">
      <path class="canvas" d="M18,18.079H-.079V0H18Z" />
    </g>
    <g id="StatusHelp-level-1">
      <path class="light-blue" d="M8.961,16.874A7.835,7.835,0,1,1,16.8,9.039,7.844,7.844,0,0,1,8.961,16.874Z" />
      <path class="white" d="M10,13.5a1,1,0,1,1-1-1A1,1,0,0,1,10,13.5Z" />
      <path class="white" d="M12.164,6.48a2.833,2.833,0,0,0-.924-2.09,3.311,3.311,0,0,0-3.612-.581,2.883,2.883,0,0,0-1.8,2.515H7.181a1.618,1.618,0,0,1,.461-.988,1.888,1.888,0,0,1,1.407-.571,1.838,1.838,0,0,1,1.244.516,1.656,1.656,0,0,1,.518,1.2,1.031,1.031,0,0,1-.213.728A5.821,5.821,0,0,1,9.551,8.293a3.726,3.726,0,0,0-.631.621,3.177,3.177,0,0,0-.433.731,2.363,2.363,0,0,0-.17.925V11H9.658a3.357,3.357,0,0,1,.08-.867,1.215,1.215,0,0,1,.372-.589c.174-.169.351-.33.522-.486C11.488,8.278,12.164,7.663,12.164,6.48Z" />
    </g>
  </g>

  <g id="IconStatusInformation">
    <title>StatusInformation.18.18</title>
    <title>StatusInformation.18.18</title>
    <g id="StatusInformation-canvas">
      <path class="canvas" d="M18,18H0V0H18Z" />
    </g>
    <g id="StatusInformation-level-1">
      <path class="light-blue" d="M8.5,17a8,8,0,1,1,8-8A8.009,8.009,0,0,1,8.5,17Z" />
      <path class="white" d="M8,8H9v5H8Zm.5-3.25a.75.75,0,1,0,.75.75A.75.75,0,0,0,8.5,4.75Z" />
    </g>
  </g>

  <g id="IconStatusInformationOutline">
    <title>StatusInformationOutline.18.18</title>
    <title>StatusInformationOutline.18.18</title>
    <g id="StatusInformation-canvas">
      <path class="canvas" d="M18,18H0V0H18Z" />
    </g>
    <g id="StatusInformation-level-1">
      <path class="light-blue-10" d="M8.5,16.5A7.5,7.5,0,1,1,16,9,7.509,7.509,0,0,1,8.5,16.5Z" />
      <path class="light-blue" d="M8.5,17a8,8,0,1,1,8-8A8.009,8.009,0,0,1,8.5,17Zm0-15a7,7,0,1,0,7,7A7.008,7.008,0,0,0,8.5,2Z" />
      <path class="light-blue" d="M8,8.025H9V14H8ZM8.5,4.9a.75.75,0,1,0,.75.75A.75.75,0,0,0,8.5,4.9Z" />
    </g>
  </g>

  <g id="IconStatusInvalid">
    <title>StatusInvalid.18.18</title>
    <title>IconLightStatusInvalid.18.18</title>
    <g id="StatusInvalid-canvas">
      <path class="canvas" d="M0,0H18V18H0Z" />
    </g>
    <g id="StatusInvalid-level-1">
      <path class="light-red" d="M8.5,1a8,8,0,1,1-8,8A8.009,8.009,0,0,1,8.5,1Z" />
      <path class="white" d="M9,11H8V5H9Zm-.5,1.75a.75.75,0,1,0,.75.75A.75.75,0,0,0,8.5,12.75Z" />
    </g>
  </g>

  <g id="IconStatusNo">
    <title>StatusNo.18.18</title>
    <title>IconLightStatusNo.18.18</title>
    <g id="StatusNo-canvas">
      <path class="canvas" d="M18,18H0V0H18Z" />
    </g>
    <g id="StatusNo-level-1">
      <path class="light-red-10" d="M16.5,9A7.5,7.5,0,1,1,9,1.5,7.5,7.5,0,0,1,16.5,9Z" />
      <path class="light-red" d="M9,1a8,8,0,1,0,8,8A8.009,8.009,0,0,0,9,1ZM2,9A6.963,6.963,0,0,1,3.716,4.423l9.861,9.861A6.99,6.99,0,0,1,2,9Zm12.284,4.577L4.423,3.716a6.99,6.99,0,0,1,9.861,9.861Z" />
    </g>
  </g>

  <g id="IconStatusOK">
    <title>StatusOK.18.18</title>
    <title>IconLightStatusOK.18.18</title>
    <g id="StatusOK-canvas">
      <path class="canvas" d="M18,18H0V0H18Z" />
    </g>
    <g id="StatusOK-level-1">
      <path class="light-green" d="M17,9A8,8,0,1,1,9,1,8.008,8.008,0,0,1,17,9Z" />
      <path class="white" d="M8,12.207,4.646,8.854l.708-.708L8,10.793l5.146-5.147.708.708Z" />
    </g>
  </g>

  <g id="IconStatusOffline">
    <title>StatusOffline.18.18</title>
    <title>IconLightStatusOffline.18.18</title>
    <g id="StatusOffline-canvas">
      <path class="canvas" d="M18,18H0V0H18Z" />
    </g>
    <g id="StatusOffline-level-1">
      <path class="light-red" d="M9.707,9l4.147,4.146-.708.708L9,9.707,4.854,13.854l-.708-.708L8.293,9,4.146,4.854l.708-.708L9,8.293l4.146-4.147.708.708Z" />
    </g>
  </g>

  <g id="IconStatusPaused">
    <title>StatusPaused.18.18</title>
    <title>IconLightStatusPaused.18.18</title>
    <g id="StatusPaused-canvas">
      <path class="canvas" d="M18,18H0V0H18Z" />
    </g>
    <g id="StatusPaused-level-1">
      <path class="light-blue" d="M9,1a8,8,0,1,0,8,8A8.008,8.008,0,0,0,9,1Z" />
      <path class="white" d="M7,12H6V6H7Z" />
      <path class="white" d="M12,12H11V6h1Z" />
    </g>
  </g>

  <g id="IconStatusRunning">
    <title>StatusRunning.18.18</title>
    <title>IconLightStatusRunning.18.18</title>
    <g id="StatusRunning-canvas">
      <path class="canvas" d="M18,18H0V0H18Z" />
    </g>
    <g id="StatusRunning-level-1">
      <path class="light-green" d="M9,2a7,7,0,1,0,7,7A7.006,7.006,0,0,0,9,2Z" />
      <path class="white" d="M7,12.5v-7l5.5,3.477Z" />
    </g>
  </g>

  <g id="IconStatusStopped">
    <title>StatusStopped.18.18</title>
    <title>IconLightStatusStopped.18.18</title>
    <g id="StatusStopped-canvas">
      <path class="canvas" d="M18,18H0V0H18Z" />
    </g>
    <g id="StatusStopped-level-1">
      <path class="light-red" d="M9,17a8,8,0,1,1,8-8A8.009,8.009,0,0,1,9,17Z" />
      <path class="white" d="M6,6h6v6H6Z" />
    </g>
  </g>

  <g id="IconStatusWarning">
    <title>StatusWarning.18.18</title>
    <title>IconLightStatusWarning.18.18</title>
    <g id="StatusWarning-canvas">
      <path class="canvas" d="M18,18H0V0H18Z" />
    </g>
    <g id="StatusWarning-level-1">
      <path class="light-yellow" d="M16.708,16H2.292L1.5,14.633,8.708,1.2h1.584L17.5,14.633Z" />
      <path class="white" d="M10,11H9V5h1Zm-.5,1.75a.75.75,0,1,0,.75.75A.75.75,0,0,0,9.5,12.75Z" />
    </g>
  </g>

</svg>
